<svg width="49" height="72" viewBox="0 0 49 72" fill="none" xmlns="http://www.w3.org/2000/svg">
<path d="M30.1562 13.2812C28.2812 13.2812 26.6667 12.6562 25.3125 11.4062C24.0625 10.0521 23.4375 8.48958 23.4375 6.71875C23.4375 4.84375 24.0625 3.28125 25.3125 2.03125C26.6667 0.677083 28.2812 0 30.1562 0C32.0312 0 33.5938 0.677083 34.8438 2.03125C36.1979 3.28125 36.875 4.84375 36.875 6.71875C36.875 8.48958 36.1979 10.0521 34.8438 11.4062C33.5938 12.6562 32.0312 13.2812 30.1562 13.2812ZM43.4375 30.9375V25H48.4375V71.7188H43.4375V37.8125C40.8333 37.2917 38.3854 36.3542 36.0938 35C33.8021 33.5417 31.8229 31.875 30.1562 30L28.125 40L35.1562 46.7188V71.7188H28.4375V51.7188L21.5625 45L15.4688 71.7188H8.4375C8.4375 71.7188 8.59375 70.8333 8.90625 69.0625C9.32292 67.2917 9.79167 64.9479 10.3125 62.0312C10.9375 59.0104 11.6146 55.7292 12.3438 52.1875C13.0729 48.6458 13.75 45.1042 14.375 41.5625C15.1042 37.9167 15.7812 34.5312 16.4062 31.4062C17.0312 28.2812 17.5521 25.6771 17.9688 23.5938C18.3854 21.5104 18.6458 20.2604 18.75 19.8438C19.0625 18.2812 19.7917 17.0833 20.9375 16.25C22.1875 15.4167 23.4375 15 24.6875 15C25.9375 15 27.0833 15.3125 28.125 15.9375C29.2708 16.4583 30.1562 17.2396 30.7812 18.2812L34.2188 23.5938C35.1562 25.3646 36.4062 26.875 37.9688 28.125C39.6354 29.375 41.4583 30.3125 43.4375 30.9375ZM10 38.75L14.375 15.9375L10.625 15.1562C8.75 14.7396 7.03125 15.0521 5.46875 16.0938C4.01042 17.1354 3.125 18.5938 2.8125 20.4688L0.15625 33.4375C0.0520833 34.375 0.260417 35.2604 0.78125 36.0938C1.30208 36.8229 1.97917 37.2396 2.8125 37.3438L10 38.75Z" fill="#8C8C8C"/>
</svg>
