<svg width="74" height="74" viewBox="0 0 74 74" fill="none" xmlns="http://www.w3.org/2000/svg">
<path d="M30 66.5625V60C28.2292 60 26.6667 59.375 25.3125 58.125C24.0625 56.7708 23.4375 55.2083 23.4375 53.4375V50L7.34375 34.0625C6.92708 35.7292 6.71875 37.7083 6.71875 40C6.71875 46.7708 8.95833 52.7083 13.4375 57.8125C17.9167 62.8125 23.4375 65.7292 30 66.5625ZM59.8438 36.7188H66.5625C66.6667 37.4479 66.7188 38.5417 66.7188 40C66.7188 49.2708 63.4375 57.1875 56.875 63.75C50.4167 70.2083 42.6042 73.4375 33.4375 73.4375C24.1667 73.4375 16.25 70.2083 9.6875 63.75C3.22917 57.1875 0 49.2708 0 40C0 30.8333 3.22917 23.0208 9.6875 16.5625C16.25 10 24.1667 6.71875 33.4375 6.71875C36.6667 6.71875 40 7.23958 43.4375 8.28125V16.7188C43.4375 18.4896 42.7604 20.0521 41.4062 21.4062C40.0521 22.7604 38.4896 23.4375 36.7188 23.4375H30V30C30 30.9375 29.6875 31.7708 29.0625 32.5C28.4375 33.125 27.6562 33.4375 26.7188 33.4375H20V40H40C40.9375 40 41.7188 40.3646 42.3438 41.0938C43.0729 41.7188 43.4375 42.5 43.4375 43.4375V53.4375H46.7188C49.9479 53.4375 52.0833 54.9479 53.125 57.9688C57.7083 53.0729 60 47.0833 60 40C60 38.5417 59.9479 37.4479 59.8438 36.7188ZM67.3438 10V8.4375C67.3438 6.875 66.7708 5.52083 65.625 4.375C64.5833 3.22917 63.2812 2.65625 61.7188 2.65625C60.1562 2.65625 58.8021 3.22917 57.6562 4.375C56.6146 5.52083 56.0938 6.875 56.0938 8.4375V10H67.3438ZM70 10C70.9375 10 71.7188 10.3646 72.3438 11.0938C73.0729 11.7188 73.4375 12.5 73.4375 13.4375V26.7188C73.4375 27.6562 73.0729 28.4375 72.3438 29.0625C71.7188 29.6875 70.9375 30 70 30H53.4375C52.5 30 51.6667 29.6875 50.9375 29.0625C50.3125 28.4375 50 27.6562 50 26.7188V13.4375C50 12.5 50.3125 11.7188 50.9375 11.0938C51.6667 10.3646 52.5 10 53.4375 10V8.4375C53.4375 6.14583 54.2188 4.16667 55.7812 2.5C57.4479 0.833333 59.4271 0 61.7188 0C64.0104 0 65.9375 0.833333 67.5 2.5C69.1667 4.16667 70 6.14583 70 8.4375V10Z" fill="#8C8C8C"/>
</svg>
