<svg width="74" height="47" viewBox="0 0 74 47" fill="none" xmlns="http://www.w3.org/2000/svg">
<path d="M46.7188 20H63.4375L50 6.5625H46.7188V20ZM51.4062 40.1562C52.4479 41.0938 53.6458 41.5625 55 41.5625C56.3542 41.5625 57.5 41.0938 58.4375 40.1562C59.4792 39.1146 60 37.9167 60 36.5625C60 35.2083 59.4792 34.0625 58.4375 33.125C57.5 32.0833 56.3542 31.5625 55 31.5625C53.6458 31.5625 52.4479 32.0833 51.4062 33.125C50.4688 34.0625 50 35.2083 50 36.5625C50 37.9167 50.4688 39.1146 51.4062 40.1562ZM40 20V6.5625H26.7188V20H40ZM13.125 40.1562C14.0625 41.0938 15.2604 41.5625 16.7188 41.5625C18.1771 41.5625 19.375 41.0938 20.3125 40.1562C21.25 39.1146 21.7188 37.9167 21.7188 36.5625C21.7188 35.2083 21.25 34.0625 20.3125 33.125C19.375 32.0833 18.1771 31.5625 16.7188 31.5625C15.2604 31.5625 14.0625 32.0833 13.125 33.125C12.1875 34.0625 11.7188 35.2083 11.7188 36.5625C11.7188 37.9167 12.1875 39.1146 13.125 40.1562ZM6.71875 20H20V6.5625H6.71875V20ZM53.4375 0L73.4375 20V36.5625H65C65 39.2708 64.0104 41.6146 62.0312 43.5938C60.0521 45.5729 57.7083 46.5625 55 46.5625C52.2917 46.5625 49.9479 45.5729 47.9688 43.5938C45.9896 41.6146 45 39.2708 45 36.5625H26.7188C26.7188 39.2708 25.7292 41.6146 23.75 43.5938C21.7708 45.5729 19.4271 46.5625 16.7188 46.5625C14.0104 46.5625 11.6667 45.5729 9.6875 43.5938C7.70833 41.6146 6.71875 39.2708 6.71875 36.5625H0V6.5625C0 4.6875 0.625 3.125 1.875 1.875C3.22917 0.625 4.84375 0 6.71875 0H53.4375Z" fill="#8C8C8C"/>
</svg>
